<?xml version="1.0" encoding="utf-8"?>
<!-- Generator: Adobe Illustrator 15.0.0, SVG Export Plug-In . SVG Version: 6.00 Build 0)  -->
<!DOCTYPE svg PUBLIC "-//W3C//DTD SVG 1.1//EN" "http://www.w3.org/Graphics/SVG/1.1/DTD/svg11.dtd">
<svg version="1.1" id="圖層_1" xmlns="http://www.w3.org/2000/svg" xmlns:xlink="http://www.w3.org/1999/xlink" x="0px" y="0px"
	 width="40px" height="40px" viewBox="0 0 40 40" enable-background="new 0 0 40 40" xml:space="preserve">
<g>
	<path d="M6.055,10.773h27.886c0.586,0,1.059-0.468,1.059-1.043c0-0.577-0.473-1.044-1.059-1.044H6.055C5.472,8.686,5,9.153,5,9.73
		C5,10.306,5.472,10.773,6.055,10.773z"/>
	<path d="M6.055,21.045h27.886C34.527,21.045,35,20.578,35,20c0-0.576-0.473-1.043-1.059-1.043H6.055C5.472,18.957,5,19.424,5,20
		C5,20.578,5.472,21.045,6.055,21.045z"/>
	<path d="M6.055,31.314h27.886c0.586,0,1.059-0.467,1.059-1.043c0-0.578-0.473-1.043-1.059-1.043H6.055
		C5.472,29.229,5,29.693,5,30.271C5,30.848,5.472,31.314,6.055,31.314z"/>
</g>
</svg>
