<?xml version="1.0" encoding="utf-8"?>
<!-- Generator: Adobe Illustrator 15.0.0, SVG Export Plug-In . SVG Version: 6.00 Build 0)  -->
<!DOCTYPE svg PUBLIC "-//W3C//DTD SVG 1.1//EN" "http://www.w3.org/Graphics/SVG/1.1/DTD/svg11.dtd">
<svg version="1.1" id="圖層_1" xmlns="http://www.w3.org/2000/svg" xmlns:xlink="http://www.w3.org/1999/xlink" x="0px" y="0px"
	 width="40px" height="40px" viewBox="0 0 40 40" enable-background="new 0 0 40 40" xml:space="preserve">
<path fill="#231815" d="M25.625,24.144c1.688-2.029,2.709-4.639,2.709-7.486c0-6.456-5.234-11.706-11.666-11.706
	C10.234,4.952,5,10.202,5,16.657c0,6.455,5.234,11.703,11.668,11.703c2.836,0,5.439-1.021,7.463-2.719l9.066,9.098
	c0.207,0.209,0.477,0.309,0.746,0.309s0.541-0.1,0.746-0.309c0.414-0.412,0.414-1.086,0-1.498L25.625,24.144z M16.668,26.241
	c-5.27,0-9.555-4.301-9.555-9.584c0-5.285,4.285-9.585,9.555-9.585c5.266,0,9.553,4.3,9.553,9.585
	C26.221,21.94,21.934,26.241,16.668,26.241z"/>
</svg>
